<svg xmlns="http://www.w3.org/2000/svg" viewBox="642 427 354 354" fill="#ff6b4a"><style>.e{fill:#ff6b4a;}</style><g><path class="e" d="M819.0701,775.3247c-94.3335,0-168.9951-76.7451-168.9951-171.082s76.7456-171.0772,171.0791-171.0772,171.0796,76.7451,171.0796,171.0772-78.8306,171.082-173.1636,171.082Zm2.084-331.6953c-88.563,0-160.6153,72.0537-160.6153,160.6133s72.0523,160.6162,160.6153,160.6162,160.6157-72.0518,160.6157-160.6162-72.0532-160.6133-160.6157-160.6133Z"/><g><path class="e" d="M821.1756,459.0112c-17.5567,0-26.1582-4.6562-35.2676-9.581-.9092-.4932-1.8291-.9873-2.7549-1.4795-5.1909,1.2646-10.2813,2.7793-15.2642,4.5361,4.8365,1.7178,8.8907,3.9014,13.0386,6.1455,9.8555,5.332,20.0454,10.8438,40.2481,10.8438s30.3901-5.5118,40.2456-10.8467c4.1425-2.2403,8.1899-4.4199,13.0166-6.1358-4.9771-1.7568-10.0684-3.2714-15.2574-4.5351-.9189,.4873-1.8325,.9804-2.7397,1.4717-9.1079,4.9248-17.7124,9.581-35.2651,9.581Z"/><path class="e" d="M856.4407,490.2798c-9.1079,4.9258-17.7124,9.582-35.2651,9.582s-26.1582-4.6562-35.2676-9.582c-9.8535-5.333-20.044-10.8448-40.249-10.8448-16.5552,0-26.3853,3.7022-34.8179,7.9747-6.4546,6.1103-12.4204,12.7304-17.794,19.8291,6.8238-2.0791,12.1402-4.9395,17.3472-7.7579,9.1074-4.9257,17.7124-9.582,35.2647-9.582s26.1616,4.6563,35.2685,9.585c9.8555,5.331,20.0454,10.8418,40.2481,10.8418s30.3901-5.5108,40.2456-10.8448c9.1069-4.9257,17.7124-9.582,35.2646-9.582s26.1587,4.6563,35.2656,9.582c5.1954,2.8116,10.4986,5.6651,17.2979,7.7422-5.3828-7.1093-11.3584-13.7373-17.8272-19.8564-8.414-4.2539-18.2329-7.9317-34.7363-7.9317-20.2021,0-30.3896,5.5118-40.2451,10.8448Z"/><path class="e" d="M896.6858,520.2856c-20.2021,0-30.3896,5.5117-40.2451,10.8448-9.1079,4.9248-17.7124,9.583-35.2651,9.583s-26.1582-4.6582-35.2676-9.583c-9.8535-5.3331-20.044-10.8448-40.249-10.8448s-30.3907,5.5117-40.2452,10.8448c-8.4921,4.5937-16.5546,8.9482-31.8349,9.5166-1.4834,3.4433-2.8306,6.956-4.0742,10.5175,.2192,.003,.4218,.0118,.643,.0118,20.2027,0,30.3921-5.5108,40.2466-10.8448,9.1074-4.9248,17.7124-9.581,35.2647-9.581s26.1616,4.6562,35.2685,9.5849c9.8555,5.3301,20.0454,10.8409,40.2481,10.8409s30.3901-5.5108,40.2456-10.8448c9.1069-4.9248,17.7124-9.581,35.2646-9.581s26.1587,4.6562,35.2656,9.581c9.8531,5.334,20.0435,10.8448,40.2447,10.8448,.209,0,.4008-.0088,.6089-.0098-1.2466-3.5635-2.5928-7.0772-4.0752-10.5225-15.2579-.5722-23.313-4.9238-31.7979-9.5136-9.8559-5.3331-20.0434-10.8448-40.2461-10.8448Z"/><path class="e" d="M936.9319,571.9819c-9.8559-5.334-20.0434-10.8467-40.2461-10.8467s-30.3896,5.5127-40.2451,10.8467c-9.1079,4.9268-17.7124,9.5811-35.2651,9.5811s-26.1582-4.6543-35.2676-9.5811c-9.8535-5.334-20.044-10.8467-40.249-10.8467s-30.3907,5.5127-40.2452,10.8467c-9.1074,4.9268-17.7114,9.5811-35.2661,9.5811-2.8886,0-5.5161-.1367-7.9634-.3692-.4902,3.4336-.853,6.9063-1.1201,10.4073,2.7984,.2675,5.7959,.4257,9.0835,.4257,20.2027,0,30.3921-5.5107,40.2466-10.8447,9.1074-4.9258,17.7124-9.583,35.2647-9.583s26.1616,4.6572,35.2685,9.5859c9.8555,5.3311,20.0454,10.8418,40.2481,10.8418s30.3901-5.5107,40.2456-10.8447c9.1069-4.9258,17.7124-9.583,35.2646-9.583s26.1587,4.6572,35.2656,9.583c9.8531,5.334,20.0435,10.8447,40.2447,10.8447,3.2739,0,6.2597-.1562,9.0498-.4228-.2691-3.5-.6309-6.9717-1.1221-10.4072-2.4365,.2304-5.0508,.3662-7.9277,.3662-17.5523,0-26.1568-4.6543-35.2642-9.5811Z"/><path class="e" d="M936.9319,612.8325c-9.8559-5.333-20.0434-10.8467-40.2461-10.8467s-30.3896,5.5137-40.2451,10.8467c-9.1079,4.9248-17.7124,9.582-35.2651,9.582s-26.1582-4.6572-35.2676-9.582c-9.8535-5.333-20.044-10.8467-40.249-10.8467s-30.3907,5.5137-40.2452,10.8467c-9.1074,4.9248-17.7114,9.582-35.2661,9.582-3.1274,0-5.9604-.1543-8.5737-.4238,.4023,3.5869,.9404,7.1328,1.5752,10.6475,2.1958,.1552,4.52,.2402,6.9985,.2402,20.2027,0,30.3921-5.5107,40.2466-10.8447,9.1074-4.9258,17.7124-9.5821,35.2647-9.5821s26.1616,4.6563,35.2685,9.584c9.8555,5.3321,20.0454,10.8428,40.2481,10.8428s30.3901-5.5107,40.2456-10.8447c9.1069-4.9258,17.7124-9.5821,35.2646-9.5821s26.1587,4.6563,35.2656,9.5821c9.8531,5.334,20.0435,10.8447,40.2447,10.8447,2.4653,0,4.7783-.085,6.9624-.2383,.6352-3.5127,1.1733-7.0595,1.5752-10.6484-2.605,.2695-5.4244,.4228-8.5376,.4228-17.5523,0-26.1568-4.6572-35.2642-9.582Z"/><path class="e" d="M896.6858,642.8384c-20.2021,0-30.3896,5.5107-40.2451,10.8447-9.1079,4.9248-17.7124,9.581-35.2651,9.581s-26.1582-4.6562-35.2676-9.581c-9.8535-5.334-20.044-10.8447-40.249-10.8447s-30.3907,5.5107-40.2452,10.8447c-8.792,4.7549-17.1406,9.2461-33.499,9.5517,1.3887,3.4854,2.8535,6.9317,4.4746,10.295,16.1582-1.0108,25.2246-5.8946,34.0049-10.6455,9.1074-4.9268,17.7124-9.5821,35.2647-9.5821s26.1616,4.6553,35.2685,9.585c9.8555,5.331,20.0454,10.8418,40.2481,10.8418s30.3901-5.5108,40.2456-10.8447c9.1069-4.9268,17.7124-9.5821,35.2646-9.5821s26.1587,4.6553,35.2656,9.5821c8.7725,4.749,17.8316,9.6279,33.9673,10.6435,1.6231-3.3623,3.0865-6.8086,4.4756-10.293-16.335-.3115-24.6748-4.7998-33.4624-9.5517-9.8559-5.334-20.0434-10.8447-40.2461-10.8447Z"/><path class="e" d="M896.6858,683.6889c-20.2021,0-30.3896,5.5108-40.2451,10.8438-9.1079,4.9277-17.7124,9.583-35.2651,9.583s-26.1582-4.6553-35.2676-9.583c-9.8535-5.333-20.044-10.8438-40.249-10.8438s-30.3907,5.5108-40.2452,10.8438c-4.0102,2.1689-7.9228,4.2842-12.5429,5.9746,2.206,2.9248,4.5332,5.75,6.9306,8.5147,3.8218-1.6338,7.232-3.4668,10.5928-5.2872,9.1074-4.9248,17.7124-9.583,35.2647-9.583s26.1616,4.6582,35.2685,9.585c9.8555,5.3301,20.0454,10.8428,40.2481,10.8428s30.3901-5.5127,40.2456-10.8448c9.1069-4.9248,17.7124-9.583,35.2646-9.583s26.1587,4.6582,35.2656,9.583c3.3531,1.8135,6.7549,3.6446,10.5664,5.2764,2.3946-2.7656,4.7227-5.5898,6.9288-8.5146-4.6094-1.6866-8.5142-3.7989-12.5147-5.9639-9.8559-5.333-20.0434-10.8438-40.2461-10.8438Z"/><path class="e" d="M856.4407,735.3862c-9.1079,4.9277-17.7124,9.5791-35.2651,9.5791s-26.1582-4.6514-35.2676-9.5791c-9.8535-5.332-20.044-10.8447-40.249-10.8447-11.0498,0-19.0957,1.6553-25.7383,4.0224,3.4053,2.7735,6.9267,5.4083,10.5547,7.9004,4.2773-.9091,9.2031-1.4589,15.1836-1.4589,17.5576,0,26.1616,4.6543,35.2685,9.582,9.8555,5.331,20.0454,10.8418,40.2481,10.8418s30.3901-5.5108,40.2456-10.8418c9.1069-4.9277,17.7124-9.582,35.2646-9.582,5.9673,0,10.8848,.5488,15.1538,1.4511,3.6294-2.4912,7.1529-5.1269,10.5596-7.9013-6.6377-2.3623-14.6743-4.0137-25.7134-4.0137-20.2021,0-30.3896,5.5127-40.2451,10.8447Z"/></g></g></svg>