<?xml version="1.0" encoding="UTF-8"?><svg width="500" height="137" style="max-width:500px;height:auto" xmlns="http://www.w3.org/2000/svg" viewBox="0 0 4280 1172"><defs><style>.e{fill:#231f20;}</style></defs><g id="a"/><g id="b"/><g id="c"><g><path class="e" d="M1920.377,965.1636c-5.8848-3.1724-9.9531-5.8838-12.2041-8.1362-3.5313-3.5313-5.2969-7.7778-5.2969-12.7422,0-5.0142,1.7656-9.2998,5.2969-12.8569,3.5303-3.5562,7.7773-5.335,12.7422-5.335,5.0137,0,9.1592,1.6387,12.4346,4.9126,3.1719,3.2241,4.7588,6.8833,4.7588,10.9766v.3838l-5.9873,2.3794c-.5117-3.8882-1.7266-6.8047-3.6455-8.7505-1.9189-1.9438-4.4404-2.9165-7.5605-2.9165-3.0703,0-5.707,1.0879-7.9063,3.2622-2.2012,2.1758-3.3008,4.8237-3.3008,7.9443,0,3.0703,1.0996,5.7065,3.3008,7.9063,1.2783,1.2798,3.9912,3.2241,8.1357,5.8335,6.5498,3.5825,11.207,6.7549,13.9707,9.5181,4.3486,4.4019,6.5244,9.6465,6.5244,15.7358,0,6.2437-2.1758,11.5522-6.5244,15.9272-4.3506,4.3755-9.6211,6.563-15.8125,6.563s-11.4639-2.1875-15.8125-6.563c-4.3496-4.375-6.5244-9.1729-6.5244-14.3921l6.832-1.7656c0,4.5034,1.5215,8.2646,4.5664,11.2837,3.0439,3.02,6.6904,4.5288,10.9385,4.5288s7.8926-1.5088,10.9385-4.5288c3.0439-3.019,4.5664-6.7031,4.5664-11.0532,0-4.2471-1.5098-7.8799-4.5283-10.8999-1.6387-1.6372-4.9395-4.042-9.9023-7.2153Z"/><path class="e" d="M2019.0244,1005.0015c-9.416,0-16.9131-2.7886-22.4902-8.3667-5.5781-5.5771-8.4434-12.6138-8.5967-21.1089v-46.9761h6.9082v46.3623c0,6.3975,2.3281,11.8472,6.9854,16.3496,4.6055,4.5552,10.3105,6.8315,17.1172,6.8315,6.3447,0,11.833-2.2646,16.4648-6.7935,4.6309-4.5288,6.9463-9.9902,6.9463-16.3877v-46.3623h6.9082v46.9761c-.1533,8.4951-3.0195,15.5317-8.5967,21.1089s-12.7939,8.3667-21.6465,8.3667Z"/><path class="e" d="M2099.0195,928.5498h6.9082v13.7397c1.4326-2.0459,3.0957-4.0166,4.9893-5.9106,6.0898-6.0889,12.332-9.2876,18.7295-9.5947v7.5225c-4.3506,.2051-8.8535,2.6362-13.5098,7.292-6.5508,6.4995-9.9531,14.3037-10.209,23.4116v38.9165h-6.9082v-75.377Z"/><path class="e" d="M2187.457,935.458v68.4688h-6.9082v-68.4688h-7.6758v-6.9082h7.6758v-20.418c.3076-5.6802,2.4814-10.5664,6.5244-14.6606,4.1953-3.8882,9.0313-5.834,14.5078-5.834,2.8652,0,5.8838,.5376,9.0576,1.6123l-2.1494,6.1406c-2.1494-.9214-4.2217-1.3818-6.2178-1.3818-3.6338,0-7.0615,1.4585-10.2852,4.3755-2.8672,2.8149-4.376,6.2173-4.5293,10.2085v19.9575h15.3516v6.9082h-15.3516Z"/><path class="e" d="M2332.3252,881.1128v151.5986h-6.9082v-151.5986h6.9082Z"/><path class="e" d="M2490.2422,997.1719l-17.04,35.5396h-6.7549l20.3408-42.6782-29.3984-61.4834h7.8291l25.0234,54.0381,25.0234-54.0381h7.7529l-32.7764,68.6987v-.0767Z"/><path class="e" d="M2602.2461,921.7183c11.667,0,21.6074,4.1196,29.8203,12.3579,8.2139,8.2397,12.3203,18.1919,12.3203,29.8594,0,11.6167-4.1064,21.5439-12.3203,29.7822-8.2129,8.2397-18.1533,12.3584-29.8203,12.3584-11.6172,0-21.5439-4.1187-29.7822-12.3584-8.2393-8.2383-12.3584-18.1655-12.3584-29.7822,0-11.6675,4.1191-21.6196,12.3584-29.8594,8.2383-8.2383,18.165-12.3579,29.7822-12.3579Zm-24.6396,17.5776c-6.8066,6.8066-10.209,15.0195-10.209,24.6396s3.4023,17.8213,10.209,24.6011c6.8057,6.7813,15.0186,10.1704,24.6396,10.1704s17.833-3.3892,24.6396-10.1704c6.8047-6.7798,10.209-14.98,10.209-24.6011s-3.4043-17.833-10.209-24.6396c-6.8066-6.8052-15.0195-10.209-24.6396-10.209s-17.834,3.4038-24.6396,10.209Z"/><path class="e" d="M2763.7578,988.959c-1.2793,1.6382-2.6611,3.2236-4.1445,4.7588-8.2402,8.2397-18.1924,12.3584-29.8594,12.3584-11.6172,0-21.5439-4.1187-29.7822-12.3584-8.2393-8.2383-12.3584-18.1655-12.3584-29.7822,0-11.6675,4.1191-21.6074,12.3584-29.8208,8.2383-8.2134,18.165-12.3198,29.7822-12.3198,11.667,0,21.6191,4.0947,29.8594,12.2813,1.585,1.6387,3.0439,3.3525,4.375,5.1431v-10.6694h6.9082v58.5669c0,11.3101-4.0176,20.98-12.0508,29.0146-8.2402,8.2383-18.167,12.3584-29.7822,12.3584-11.668,0-21.6211-4.1201-29.8594-12.3584-1.6885-1.6885-3.1992-3.4541-4.5293-5.2964l7.292-2.6099c.7676,.9214,1.5859,1.8159,2.457,2.6865,6.8047,6.8052,15.0176,10.209,24.6396,10.209,9.5684,0,17.7559-3.4038,24.5625-10.209,6.1904-6.1919,9.5684-13.5093,10.1318-21.9526Zm.1533-32.2388c-1.3311-6.6011-4.5029-12.4087-9.5176-17.4243-6.8066-6.8052-15.0195-10.209-24.6396-10.209s-17.834,3.4038-24.6396,10.209c-6.8066,6.8066-10.209,15.0195-10.209,24.6396s3.4023,17.8345,10.209,24.6396c6.8057,6.8062,15.0186,10.2085,24.6396,10.2085s17.833-3.4023,24.6396-10.2085c4.9629-4.9629,8.1367-10.7202,9.5176-17.271v-14.584Z"/><path class="e" d="M2901.1689,1003.9268h-6.9082v-15.3516c-1.3311,1.7915-2.79,3.5054-4.375,5.1426-8.2402,8.2397-18.1924,12.3584-29.8594,12.3584-11.6172,0-21.5439-4.1187-29.7822-12.3584-8.2393-8.2383-12.3584-18.1655-12.3584-29.7822,0-11.6675,4.1191-21.6196,12.3584-29.8594,8.2383-8.2383,18.165-12.3579,29.7822-12.3579,11.667,0,21.6191,4.1196,29.8594,12.3579,1.585,1.6387,3.0439,3.3525,4.375,5.1431v-10.6694h6.9082v75.377Zm-6.9082-33.1597v-13.6631c-1.2793-6.7549-4.4785-12.6904-9.5947-17.8081-6.8066-6.8052-15.0195-10.209-24.6396-10.209s-17.834,3.4038-24.6396,10.209c-6.8066,6.8066-10.209,15.0195-10.209,24.6396s3.4023,17.8213,10.209,24.6011c6.8057,6.7813,15.0186,10.1704,24.6396,10.1704s17.833-3.4023,24.6396-10.209c5.1162-5.1162,8.3154-11.0269,9.5947-17.731Z"/><path class="e" d="M3038.8975,881.1128v151.5986h-6.9082v-151.5986h6.9082Z"/><path class="e" d="M3251.083,1003.9268h-6.9082v-15.3516c-1.3311,1.7915-2.79,3.5054-4.375,5.1426-8.2402,8.2397-18.1924,12.3584-29.8594,12.3584-11.6172,0-21.5439-4.1187-29.7822-12.3584-8.2393-8.2383-12.3584-18.1655-12.3584-29.7822,0-11.6675,4.1191-21.6196,12.3584-29.8594,8.2383-8.2383,18.165-12.3579,29.7822-12.3579,11.667,0,21.6191,4.1196,29.8594,12.3579,1.585,1.6387,3.0439,3.3525,4.375,5.1431v-10.6694h6.9082v75.377Zm-6.9082-33.1597v-13.6631c-1.2793-6.7549-4.4785-12.6904-9.5947-17.8081-6.8066-6.8052-15.0195-10.209-24.6396-10.209s-17.834,3.4038-24.6396,10.209c-6.8066,6.8066-10.209,15.0195-10.209,24.6396s3.4023,17.8213,10.209,24.6011c6.8057,6.7813,15.0186,10.1704,24.6396,10.1704s17.833-3.4023,24.6396-10.209c5.1162-5.1162,8.3154-11.0269,9.5947-17.731Z"/><path class="e" d="M3382.1992,1003.9268h-6.9082v-15.3516c-1.3311,1.7915-2.79,3.5054-4.375,5.1426-8.2402,8.2397-18.1924,12.3584-29.8594,12.3584-11.6172,0-21.5439-4.1187-29.7822-12.3584-8.2393-8.2383-12.3584-18.1655-12.3584-29.7822,0-11.6675,4.1191-21.6196,12.3584-29.8594,8.2383-8.2383,18.165-12.3579,29.7822-12.3579,11.667,0,21.6191,4.1196,29.8594,12.3579,1.585,1.6387,3.0439,3.3525,4.375,5.1431v-58.1064h6.9082v122.814Zm-6.9082-33.1597v-13.6631c-1.2793-6.7549-4.4785-12.6904-9.5947-17.8081-6.8066-6.8052-15.0195-10.209-24.6396-10.209s-17.834,3.4038-24.6396,10.209c-6.8066,6.8066-10.209,15.0195-10.209,24.6396s3.4023,17.8213,10.209,24.6011c6.8057,6.7813,15.0186,10.1704,24.6396,10.1704s17.833-3.4023,24.6396-10.209c5.1162-5.1162,8.3154-11.0269,9.5947-17.731Z"/><path class="e" d="M3461.2734,991.3384l29.0146-62.7886h7.9824l-36.9971,77.4492-36.998-77.4492h7.9834l29.0146,62.7886Z"/><path class="e" d="M3553.165,989.8032c6.499,5.9365,14.2256,8.9038,23.1816,8.9038,9.6201,0,17.833-3.4023,24.6396-10.209,.8691-.8691,1.6885-1.7651,2.4561-2.6865l7.292,2.6099c-1.3311,1.8423-2.8398,3.6079-4.5283,5.2964-8.2402,8.2397-18.1924,12.3584-29.8594,12.3584-11.6172,0-21.5439-4.1187-29.7822-12.3584-8.2393-8.2383-12.3584-18.1919-12.3584-29.8589,0-11.6157,4.1191-21.543,12.3584-29.7827,8.2383-8.2383,18.165-12.3579,29.7822-12.3579,9.9785,0,18.7031,2.9937,26.1748,8.981,1.2275,1.0239,2.4561,2.1489,3.6846,3.377,.46,.4609,.8945,.9214,1.3047,1.3818l-5.2197,5.2197-49.126,49.1255Zm44.0596-53.8081c-5.9863-4.6055-12.9463-6.9082-20.8779-6.9082-9.5693,0-17.7578,3.3906-24.5625,10.1709-6.8066,6.7808-10.209,14.981-10.209,24.6011,0,7.9326,2.3027,14.8911,6.9082,20.8784l48.7412-48.7422Z"/><path class="e" d="M3662.7891,945.3599v58.5669h-6.9082v-75.377h6.9082v4.8359c6.2939-6.2427,13.6113-9.3647,21.9531-9.3647,8.9043,0,16.1445,2.7896,21.7227,8.3667,5.5771,5.5781,8.4434,12.6147,8.5967,21.1084v50.4307h-6.9082v-49.8164c0-6.396-2.3154-11.8594-6.9463-16.3877-4.6318-4.5288-10.1201-6.7935-16.4648-6.7935s-11.8203,2.2261-16.4268,6.6782c-2.5078,2.5078-4.3496,5.0923-5.5264,7.7524Z"/><path class="e" d="M3775.5596,928.5498v-32.085h6.9082v32.085h15.3516v6.9082h-15.3516v68.4688h-6.9082v-68.4688h-15.3516v-6.9082h15.3516Z"/><path class="e" d="M3874.0527,1005.0015c-9.416,0-16.9131-2.7886-22.4902-8.3667-5.5781-5.5771-8.4434-12.6138-8.5967-21.1089v-46.9761h6.9082v46.3623c0,6.3975,2.3281,11.8472,6.9854,16.3496,4.6055,4.5552,10.3105,6.8315,17.1172,6.8315,6.3447,0,11.833-2.2646,16.4648-6.7935,4.6309-4.5288,6.9463-9.9902,6.9463-16.3877v-46.3623h6.9082v46.9761c-.1533,8.4951-3.0195,15.5317-8.5967,21.1089s-12.7939,8.3667-21.6465,8.3667Z"/><path class="e" d="M3954.0488,928.5498h6.9082v13.7397c1.4326-2.0459,3.0957-4.0166,4.9893-5.9106,6.0898-6.0889,12.332-9.2876,18.7295-9.5947v7.5225c-4.3506,.2051-8.8535,2.6362-13.5098,7.292-6.5508,6.4995-9.9531,14.3037-10.209,23.4116v38.9165h-6.9082v-75.377Z"/><path class="e" d="M4040.7969,989.8032c6.499,5.9365,14.2256,8.9038,23.1816,8.9038,9.6201,0,17.833-3.4023,24.6396-10.209,.8691-.8691,1.6885-1.7651,2.4561-2.6865l7.292,2.6099c-1.3311,1.8423-2.8398,3.6079-4.5283,5.2964-8.2402,8.2397-18.1924,12.3584-29.8594,12.3584-11.6172,0-21.5439-4.1187-29.7822-12.3584-8.2393-8.2383-12.3584-18.1919-12.3584-29.8589,0-11.6157,4.1191-21.543,12.3584-29.7827,8.2383-8.2383,18.165-12.3579,29.7822-12.3579,9.9785,0,18.7031,2.9937,26.1748,8.981,1.2275,1.0239,2.4561,2.1489,3.6846,3.377,.46,.4609,.8945,.9214,1.3047,1.3818l-5.2197,5.2197-49.126,49.1255Zm44.0596-53.8081c-5.9863-4.6055-12.9463-6.9082-20.8779-6.9082-9.5693,0-17.7578,3.3906-24.5625,10.1709-6.8066,6.7808-10.209,14.981-10.209,24.6011,0,7.9326,2.3027,14.8911,6.9082,20.8784l48.7412-48.7422Z"/></g><g><path class="e" d="M302.8262,705.1001V228.5894h31.5342v476.5107c5.3701,10.0459,12.0273,19.04,19.9717,26.9785,21.0215,20.3223,46.0137,30.4824,74.9805,30.4824s54.0117-10.3359,75.1543-31.0078c21.1387-20.6719,31.709-45.6035,31.709-74.8047V228.5894h31.5342v430.9619c-.7002,36.4385-14.1357,67.7432-40.293,93.9004-27.0996,27.0996-59.7998,40.6436-98.1045,40.6436-38.0762,0-70.6621-13.4297-97.7559-40.293-4.9043-4.6699-9.2295-9.46-12.9629-14.3652-3.7402,4.9053-8.0586,9.6953-12.9648,14.3652-27.0986,26.8633-59.6836,40.293-97.7539,40.293-38.3115,0-70.8965-13.5439-97.7549-40.6436-26.3984-26.1572-39.9424-57.4619-40.6436-93.9004V228.5894h31.5332v428.1592c0,29.2012,10.5664,54.1328,31.709,74.8047,21.1387,20.6719,46.1895,31.0078,75.1563,31.0078s53.957-10.1602,74.9805-30.4824c7.9375-7.9385,14.5947-16.9326,19.9707-26.9785Z"/><path class="e" d="M1009.8838,789.1899h-31.5342v-70.0752c-6.0762,8.1797-12.7344,16.0029-19.9707,23.4756-37.6113,37.6104-83.0391,56.4102-136.2969,56.4102-53.0264,0-98.3398-18.7998-135.9453-56.4102-37.6104-37.6055-56.4102-82.9189-56.4102-135.9463,0-53.2568,18.7998-98.6846,56.4102-136.2959,37.6055-37.6045,82.9189-56.4102,135.9453-56.4102,53.2578,0,98.6855,18.8057,136.2969,56.4102,7.2363,7.4785,13.8945,15.3018,19.9707,23.4756v-48.7021h31.5342v344.0684Zm-31.5342-151.3623v-62.3662c-5.8418-30.833-20.4414-57.9268-43.7969-81.2871-31.0684-31.0635-68.5586-46.6006-112.4707-46.6006s-81.4072,15.5371-112.4697,46.6006c-31.0693,31.0684-46.6006,68.5586-46.6006,112.4697s15.5313,81.3477,46.6006,112.2959c31.0625,30.9531,68.5527,46.4248,112.4697,46.4248s81.4023-15.5322,112.4707-46.6006c23.3555-23.3545,37.9551-50.333,43.7969-80.9365Z"/><path class="e" d="M1248.8398,731.728l132.4414-286.6064h36.4395l-168.8809,353.5283-168.8809-353.5283h36.4395l132.4414,286.6064Z"/><path class="e" d="M1546.3076,724.7212c29.6611,27.0986,64.9346,40.6436,105.8135,40.6436,43.9121,0,81.4023-15.5322,112.4707-46.6006,3.9688-3.9688,7.708-8.0586,11.2119-12.2627l33.2861,11.9131c-6.0781,8.4082-12.9648,16.4668-20.6729,24.1758-37.6104,37.6104-83.0391,56.4102-136.2959,56.4102-53.0273,0-98.3398-18.7998-135.9453-56.4102-37.6113-37.6055-56.4102-83.0391-56.4102-136.2959,0-53.0215,18.7988-98.335,56.4102-135.9463,37.6055-37.6045,82.918-56.4102,135.9453-56.4102,45.5488,0,85.3711,13.665,119.4785,40.9941,5.6055,4.6748,11.2109,9.8105,16.8174,15.416,2.1025,2.1025,4.084,4.2051,5.9561,6.3076l-23.8252,23.8252-224.2402,224.2402Zm201.1162-245.6133c-27.3301-21.0225-59.0996-31.5342-95.3027-31.5342-43.6816,0-81.0566,15.4775-112.1201,46.4248-31.0684,30.9541-46.5996,68.3838-46.5996,112.2959,0,36.209,10.5107,67.9727,31.5342,95.3018l222.4883-222.4883Z"/><path class="e" d="M2029.4746,594.3813c-3.0381,.2354-6.1914,.3506-9.46,.3506h-95.3018v194.458h-31.5342V228.5894h147.1572c42.7461,5.8418,79.0645,23.7109,108.9668,53.6074,35.7383,35.7383,53.6074,78.835,53.6074,129.2891,0,50.6895-17.8691,93.9004-53.6074,129.6387-24.7617,24.7617-53.1416,40.9941-85.1406,48.7021l129.2881,199.3633h-38.8916l-125.084-194.8086Zm-104.7617-333.9072v302.373h95.3018c41.5742,0,77.1377-14.7705,106.6885-44.3223,29.5469-29.5459,44.3232-65.2246,44.3232-107.0391s-14.7764-77.4336-44.3232-106.8643c-29.5508-29.4316-65.1143-44.1475-106.6885-44.1475h-95.3018Z"/><path class="e" d="M2327.6445,724.7212c29.6611,27.0986,64.9336,40.6436,105.8125,40.6436,43.9121,0,81.4023-15.5322,112.4707-46.6006,3.9688-3.9688,7.709-8.0586,11.2129-12.2627l33.2852,11.9131c-6.0762,8.4082-12.9648,16.4668-20.6719,24.1758-37.6113,37.6104-83.0391,56.4102-136.2969,56.4102-53.0264,0-98.3398-18.7998-135.9453-56.4102-37.6104-37.6055-56.4102-83.0391-56.4102-136.2959,0-53.0215,18.7998-98.335,56.4102-135.9463,37.6055-37.6045,82.9189-56.4102,135.9453-56.4102,45.5488,0,85.3711,13.665,119.4785,40.9941,5.6055,4.6748,11.2129,9.8105,16.8184,15.416,2.1016,2.1025,4.084,4.2051,5.9551,6.3076l-23.8242,23.8252-224.2402,224.2402Zm201.1152-245.6133c-27.3301-21.0225-59.0977-31.5342-95.3027-31.5342-43.6816,0-81.0566,15.4775-112.1191,46.4248-31.0684,30.9541-46.5996,68.3838-46.5996,112.2959,0,36.209,10.5107,67.9727,31.5332,95.3018l222.4883-222.4883Z"/><path class="e" d="M2723.5684,445.1216v-146.457h31.5332v146.457h70.0762v31.5342h-70.0762v312.5342h-31.5332V476.6558h-70.0742v-31.5342h70.0742Z"/><path class="e" d="M2909.2676,445.1216h31.5332v62.7168c6.5371-9.3398,14.1289-18.334,22.7734-26.9785,27.7949-27.7949,56.291-42.3955,85.4922-43.7969v34.3369c-19.8555,.9355-40.4141,12.0332-61.666,33.2852-29.9023,29.667-45.4336,65.29-46.5996,106.8643v177.6406h-31.5332V445.1216Z"/><path class="e" d="M3183.2598,724.7212c29.6621,27.0986,64.9355,40.6436,105.8145,40.6436,43.9121,0,81.4023-15.5322,112.4707-46.6006,3.9688-3.9688,7.707-8.0586,11.2109-12.2627l33.2852,11.9131c-6.0762,8.4082-12.9629,16.4668-20.6719,24.1758-37.6094,37.6104-83.0391,56.4102-136.2949,56.4102-53.0273,0-98.3418-18.7998-135.9453-56.4102-37.6113-37.6055-56.4102-83.0391-56.4102-136.2959,0-53.0215,18.7988-98.335,56.4102-135.9463,37.6035-37.6045,82.918-56.4102,135.9453-56.4102,45.5488,0,85.3711,13.665,119.4766,40.9941,5.6074,4.6748,11.2129,9.8105,16.8184,15.416,2.1035,2.1025,4.084,4.2051,5.957,6.3076l-23.8262,23.8252-224.2402,224.2402Zm201.1152-245.6133c-27.3281-21.0225-59.0977-31.5342-95.3008-31.5342-43.6816,0-81.0566,15.4775-112.1211,46.4248-31.0684,30.9541-46.5996,68.3838-46.5996,112.2959,0,36.209,10.5117,67.9727,31.5332,95.3018l222.4883-222.4883Z"/><path class="e" d="M3901.5293,789.1899h-31.5332v-70.0752c-6.0762,8.1797-12.7344,16.0029-19.9707,23.4756-37.6113,37.6104-83.0391,56.4102-136.2969,56.4102-53.0273,0-98.3398-18.7998-135.9453-56.4102-37.6113-37.6055-56.4102-82.9189-56.4102-135.9463,0-53.2568,18.7988-98.6846,56.4102-136.2959,37.6055-37.6045,82.918-56.4102,135.9453-56.4102,53.2578,0,98.6855,18.8057,136.2969,56.4102,7.2363,7.4785,13.8945,15.3018,19.9707,23.4756v-48.7021h31.5332v344.0684Zm-31.5332-151.3623v-62.3662c-5.8418-30.833-20.4434-57.9268-43.7969-81.2871-31.0684-31.0635-68.5586-46.6006-112.4707-46.6006s-81.4082,15.5371-112.4707,46.6006c-31.0684,31.0684-46.5996,68.5586-46.5996,112.4697s15.5313,81.3477,46.5996,112.2959c31.0625,30.9531,68.5527,46.4248,112.4707,46.4248s81.4023-15.5322,112.4707-46.6006c23.3535-23.3545,37.9551-50.333,43.7969-80.9365Z"/><path class="e" d="M4057.4453,445.1216v-146.457h31.5352v146.457h70.0742v31.5342h-70.0742v312.5342h-31.5352V476.6558h-70.0742v-31.5342h70.0742Z"/></g><g><path class="e" d="M819.0701,775.3247c-94.3335,0-168.9951-76.7451-168.9951-171.082s76.7456-171.0772,171.0791-171.0772,171.0796,76.7451,171.0796,171.0772-78.8306,171.082-173.1636,171.082Zm2.084-331.6953c-88.563,0-160.6153,72.0537-160.6153,160.6133s72.0523,160.6162,160.6153,160.6162,160.6157-72.0518,160.6157-160.6162-72.0532-160.6133-160.6157-160.6133Z"/><g><path class="e" d="M821.1756,459.0112c-17.5567,0-26.1582-4.6562-35.2676-9.581-.9092-.4932-1.8291-.9873-2.7549-1.4795-5.1909,1.2646-10.2813,2.7793-15.2642,4.5361,4.8365,1.7178,8.8907,3.9014,13.0386,6.1455,9.8555,5.332,20.0454,10.8438,40.2481,10.8438s30.3901-5.5118,40.2456-10.8467c4.1425-2.2403,8.1899-4.4199,13.0166-6.1358-4.9771-1.7568-10.0684-3.2714-15.2574-4.5351-.9189,.4873-1.8325,.9804-2.7397,1.4717-9.1079,4.9248-17.7124,9.581-35.2651,9.581Z"/><path class="e" d="M856.4407,490.2798c-9.1079,4.9258-17.7124,9.582-35.2651,9.582s-26.1582-4.6562-35.2676-9.582c-9.8535-5.333-20.044-10.8448-40.249-10.8448-16.5552,0-26.3853,3.7022-34.8179,7.9747-6.4546,6.1103-12.4204,12.7304-17.794,19.8291,6.8238-2.0791,12.1402-4.9395,17.3472-7.7579,9.1074-4.9257,17.7124-9.582,35.2647-9.582s26.1616,4.6563,35.2685,9.585c9.8555,5.331,20.0454,10.8418,40.2481,10.8418s30.3901-5.5108,40.2456-10.8448c9.1069-4.9257,17.7124-9.582,35.2646-9.582s26.1587,4.6563,35.2656,9.582c5.1954,2.8116,10.4986,5.6651,17.2979,7.7422-5.3828-7.1093-11.3584-13.7373-17.8272-19.8564-8.414-4.2539-18.2329-7.9317-34.7363-7.9317-20.2021,0-30.3896,5.5118-40.2451,10.8448Z"/><path class="e" d="M896.6858,520.2856c-20.2021,0-30.3896,5.5117-40.2451,10.8448-9.1079,4.9248-17.7124,9.583-35.2651,9.583s-26.1582-4.6582-35.2676-9.583c-9.8535-5.3331-20.044-10.8448-40.249-10.8448s-30.3907,5.5117-40.2452,10.8448c-8.4921,4.5937-16.5546,8.9482-31.8349,9.5166-1.4834,3.4433-2.8306,6.956-4.0742,10.5175,.2192,.003,.4218,.0118,.643,.0118,20.2027,0,30.3921-5.5108,40.2466-10.8448,9.1074-4.9248,17.7124-9.581,35.2647-9.581s26.1616,4.6562,35.2685,9.5849c9.8555,5.3301,20.0454,10.8409,40.2481,10.8409s30.3901-5.5108,40.2456-10.8448c9.1069-4.9248,17.7124-9.581,35.2646-9.581s26.1587,4.6562,35.2656,9.581c9.8531,5.334,20.0435,10.8448,40.2447,10.8448,.209,0,.4008-.0088,.6089-.0098-1.2466-3.5635-2.5928-7.0772-4.0752-10.5225-15.2579-.5722-23.313-4.9238-31.7979-9.5136-9.8559-5.3331-20.0434-10.8448-40.2461-10.8448Z"/><path class="e" d="M936.9319,571.9819c-9.8559-5.334-20.0434-10.8467-40.2461-10.8467s-30.3896,5.5127-40.2451,10.8467c-9.1079,4.9268-17.7124,9.5811-35.2651,9.5811s-26.1582-4.6543-35.2676-9.5811c-9.8535-5.334-20.044-10.8467-40.249-10.8467s-30.3907,5.5127-40.2452,10.8467c-9.1074,4.9268-17.7114,9.5811-35.2661,9.5811-2.8886,0-5.5161-.1367-7.9634-.3692-.4902,3.4336-.853,6.9063-1.1201,10.4073,2.7984,.2675,5.7959,.4257,9.0835,.4257,20.2027,0,30.3921-5.5107,40.2466-10.8447,9.1074-4.9258,17.7124-9.583,35.2647-9.583s26.1616,4.6572,35.2685,9.5859c9.8555,5.3311,20.0454,10.8418,40.2481,10.8418s30.3901-5.5107,40.2456-10.8447c9.1069-4.9258,17.7124-9.583,35.2646-9.583s26.1587,4.6572,35.2656,9.583c9.8531,5.334,20.0435,10.8447,40.2447,10.8447,3.2739,0,6.2597-.1562,9.0498-.4228-.2691-3.5-.6309-6.9717-1.1221-10.4072-2.4365,.2304-5.0508,.3662-7.9277,.3662-17.5523,0-26.1568-4.6543-35.2642-9.5811Z"/><path class="e" d="M936.9319,612.8325c-9.8559-5.333-20.0434-10.8467-40.2461-10.8467s-30.3896,5.5137-40.2451,10.8467c-9.1079,4.9248-17.7124,9.582-35.2651,9.582s-26.1582-4.6572-35.2676-9.582c-9.8535-5.333-20.044-10.8467-40.249-10.8467s-30.3907,5.5137-40.2452,10.8467c-9.1074,4.9248-17.7114,9.582-35.2661,9.582-3.1274,0-5.9604-.1543-8.5737-.4238,.4023,3.5869,.9404,7.1328,1.5752,10.6475,2.1958,.1552,4.52,.2402,6.9985,.2402,20.2027,0,30.3921-5.5107,40.2466-10.8447,9.1074-4.9258,17.7124-9.5821,35.2647-9.5821s26.1616,4.6563,35.2685,9.584c9.8555,5.3321,20.0454,10.8428,40.2481,10.8428s30.3901-5.5107,40.2456-10.8447c9.1069-4.9258,17.7124-9.5821,35.2646-9.5821s26.1587,4.6563,35.2656,9.5821c9.8531,5.334,20.0435,10.8447,40.2447,10.8447,2.4653,0,4.7783-.085,6.9624-.2383,.6352-3.5127,1.1733-7.0595,1.5752-10.6484-2.605,.2695-5.4244,.4228-8.5376,.4228-17.5523,0-26.1568-4.6572-35.2642-9.582Z"/><path class="e" d="M896.6858,642.8384c-20.2021,0-30.3896,5.5107-40.2451,10.8447-9.1079,4.9248-17.7124,9.581-35.2651,9.581s-26.1582-4.6562-35.2676-9.581c-9.8535-5.334-20.044-10.8447-40.249-10.8447s-30.3907,5.5107-40.2452,10.8447c-8.792,4.7549-17.1406,9.2461-33.499,9.5517,1.3887,3.4854,2.8535,6.9317,4.4746,10.295,16.1582-1.0108,25.2246-5.8946,34.0049-10.6455,9.1074-4.9268,17.7124-9.5821,35.2647-9.5821s26.1616,4.6553,35.2685,9.585c9.8555,5.331,20.0454,10.8418,40.2481,10.8418s30.3901-5.5108,40.2456-10.8447c9.1069-4.9268,17.7124-9.5821,35.2646-9.5821s26.1587,4.6553,35.2656,9.5821c8.7725,4.749,17.8316,9.6279,33.9673,10.6435,1.6231-3.3623,3.0865-6.8086,4.4756-10.293-16.335-.3115-24.6748-4.7998-33.4624-9.5517-9.8559-5.334-20.0434-10.8447-40.2461-10.8447Z"/><path class="e" d="M896.6858,683.6889c-20.2021,0-30.3896,5.5108-40.2451,10.8438-9.1079,4.9277-17.7124,9.583-35.2651,9.583s-26.1582-4.6553-35.2676-9.583c-9.8535-5.333-20.044-10.8438-40.249-10.8438s-30.3907,5.5108-40.2452,10.8438c-4.0102,2.1689-7.9228,4.2842-12.5429,5.9746,2.206,2.9248,4.5332,5.75,6.9306,8.5147,3.8218-1.6338,7.232-3.4668,10.5928-5.2872,9.1074-4.9248,17.7124-9.583,35.2647-9.583s26.1616,4.6582,35.2685,9.585c9.8555,5.3301,20.0454,10.8428,40.2481,10.8428s30.3901-5.5127,40.2456-10.8448c9.1069-4.9248,17.7124-9.583,35.2646-9.583s26.1587,4.6582,35.2656,9.583c3.3531,1.8135,6.7549,3.6446,10.5664,5.2764,2.3946-2.7656,4.7227-5.5898,6.9288-8.5146-4.6094-1.6866-8.5142-3.7989-12.5147-5.9639-9.8559-5.333-20.0434-10.8438-40.2461-10.8438Z"/><path class="e" d="M856.4407,735.3862c-9.1079,4.9277-17.7124,9.5791-35.2651,9.5791s-26.1582-4.6514-35.2676-9.5791c-9.8535-5.332-20.044-10.8447-40.249-10.8447-11.0498,0-19.0957,1.6553-25.7383,4.0224,3.4053,2.7735,6.9267,5.4083,10.5547,7.9004,4.2773-.9091,9.2031-1.4589,15.1836-1.4589,17.5576,0,26.1616,4.6543,35.2685,9.582,9.8555,5.331,20.0454,10.8418,40.2481,10.8418s30.3901-5.5108,40.2456-10.8418c9.1069-4.9277,17.7124-9.582,35.2646-9.582,5.9673,0,10.8848,.5488,15.1538,1.4511,3.6294-2.4912,7.1529-5.1269,10.5596-7.9013-6.6377-2.3623-14.6743-4.0137-25.7134-4.0137-20.2021,0-30.3896,5.5127-40.2451,10.8447Z"/></g></g></g><g id="d"/></svg>